PathFileType	4	(X/Y/Z)	c:/Users/goper/Files/vsCode/490R/osim_files/C10/C10_Static.trc
DataRate	CameraRate	NumFrames	NumMarkers	Units                	OrigDataRate	OrigDataStartFrame	OrigNumFrames
250.00	250.00	5	36	mm	250.0	1232	1971
                Frame#	Time	LPSIS			LASIS			LTH1			LTH2			LTH3			LTH4			LLFE			LMFE			LSH1			LSH2			LSH3			LSH4			LLMAL			LMMAL			LCAL			LMTP5			LTOE			LMTP1			RPSIS			RASIS			RTH1			RTH2			RTH3			RTH4			RLFE			RMFE			RSH1			RSH2			RSH3			RSH4			RLMAL			RMMAL			RCAL			RMTP1			RTOE			RMTP5		
		X1	Y1	Z1	X2	Y2	Z2	X3	Y3	Z3	X4	Y4	Z4	X5	Y5	Z5	X6	Y6	Z6	X7	Y7	Z7	X8	Y8	Z8	X9	Y9	Z9	X10	Y10	Z10	X11	Y11	Z11	X12	Y12	Z12	X13	Y13	Z13	X14	Y14	Z14	X15	Y15	Z15	X16	Y16	Z16	X17	Y17	Z17	X18	Y18	Z18	X19	Y19	Z19	X20	Y20	Z20	X21	Y21	Z21	X22	Y22	Z22	X23	Y23	Z23	X24	Y24	Z24	X25	Y25	Z25	X26	Y26	Z26	X27	Y27	Z27	X28	Y28	Z28	X29	Y29	Z29	X30	Y30	Z30	X31	Y31	Z31	X32	Y32	Z32	X33	Y33	Z33	X34	Y34	Z34	X35	Y35	Z35	X36	Y36	Z36

1232	4.92400	-323.02240	1027.11670	440.50598	-181.52794	1001.13843	288.42371	-269.70941	795.84033	251.85875	-264.87534	749.73755	242.16676	-209.02849	796.03656	250.29921	-213.20049	749.23639	246.48044	-244.43408	492.79666	270.62555	-229.78079	467.05203	384.88589	-307.41898	418.01099	255.99313	-308.70767	370.62460	246.74112	-246.07124	411.71277	258.98779	-254.88354	367.60577	250.08626	-284.57364	92.66427	239.22424	-272.67645	90.12266	319.20132	-347.67575	38.42832	279.02710	-177.16743	28.22000	206.32381	-121.95986	46.93994	266.44315	-156.54778	26.02768	315.67151	-311.01898	1028.40234	520.59686	-142.48576	997.52942	629.35229	-242.38791	756.89856	687.06390	-234.78995	713.89258	691.53430	-181.36348	760.25812	688.91101	-181.33430	716.38422	693.36145	-218.14879	485.84232	665.39270	-206.59195	462.99203	554.83691	-295.92093	404.91278	688.83813	-292.36346	361.95209	698.08392	-233.20448	400.51645	687.19391	-240.19370	360.24475	696.30743	-274.31830	91.32754	699.15625	-255.13495	89.34888	619.42139	-329.44623	40.55123	664.41376	-135.08865	33.33203	637.20496	-104.55635	45.91717	678.78729	-156.34683	30.66311	740.59576
1233	4.92800	-323.05112	1027.14954	440.53430	-181.52687	1001.13904	288.49057	-269.70255	795.85144	251.90712	-264.89392	749.75201	242.23170	-209.04250	796.06146	250.33362	-213.22290	749.24030	246.52785	-244.42332	492.81177	270.67178	-229.78093	467.06946	384.90768	-308.04391	416.86194	257.96710	-308.71808	370.68088	246.76509	-246.07407	411.72852	259.03424	-254.90199	367.61771	250.09590	-284.57602	92.68124	239.22319	-272.85001	90.01317	319.30569	-347.69672	38.46829	279.02496	-177.16838	28.24832	206.33902	-121.96039	46.98679	266.43277	-156.49780	26.07616	315.68756	-311.03763	1028.42529	520.64490	-142.49326	997.56433	629.40094	-242.39601	756.93164	687.08752	-234.77904	713.93378	691.58118	-181.34302	760.31750	688.96423	-181.33824	716.41229	693.40442	-218.12894	485.87610	665.42383	-206.59366	463.01346	554.88672	-295.88898	404.92477	688.87378	-292.37607	361.96735	698.10120	-233.18181	400.55865	687.22955	-240.16385	360.27573	696.32776	-274.32404	91.34801	699.17310	-255.11751	89.37676	619.42645	-329.44342	40.61163	664.38269	-135.10260	33.36152	637.19067	-104.55749	45.96289	678.78778	-156.34250	30.71012	740.57635
1234	4.93200	-323.05142	1027.15076	440.56387	-181.50230	1001.16321	288.54791	-269.72217	795.85681	251.97867	-264.91724	749.74994	242.28944	-209.01907	796.06110	250.39516	-213.21602	749.26215	246.58153	-244.42419	492.83234	270.70032	-229.77449	467.08676	384.93811	-307.84824	417.24664	257.39377	-308.71863	370.66760	246.82773	-246.06931	411.72806	259.06006	-254.89822	367.62091	250.13734	-284.55823	92.70012	239.23412	-272.68457	90.15096	319.20993	-347.70819	38.50959	278.99017	-177.16339	28.24734	206.35052	-121.92979	47.01680	266.41241	-156.45596	26.12970	315.68176	-311.04538	1028.43677	520.68488	-142.46217	997.60175	629.46045	-242.36830	756.98700	687.14337	-234.78099	713.96539	691.61053	-181.30637	760.35004	689.02179	-181.29355	716.45288	693.47046	-218.09293	485.91354	665.43597	-206.57561	463.01913	554.93213	-295.89175	404.96155	688.89581	-292.36691	361.97849	698.10992	-233.13896	400.58368	687.25781	-240.10976	360.31259	696.34113	-274.29910	91.38619	699.15436	-255.10490	89.38415	619.44604	-329.46024	40.62331	664.33881	-135.03072	33.41544	637.14819	-104.52747	45.98052	678.77863	-156.31531	30.74625	740.55988
1235	4.93600	-323.03827	1027.15466	440.62189	-181.50864	1001.16962	288.60214	-269.70224	795.87659	252.03596	-264.90622	749.74353	242.35109	-209.03178	796.06964	250.45758	-213.20903	749.25415	246.64452	-244.40944	492.83725	270.75073	-229.74599	467.10596	384.97665	-307.65341	417.65628	256.79404	-308.72137	370.70908	246.85449	-246.06607	411.75299	259.09482	-254.89357	367.63443	250.16612	-284.56195	92.70261	239.24767	-272.81720	90.04330	319.29675	-347.87170	38.52007	278.86575	-177.14389	28.27048	206.33191	-121.91832	47.06108	266.40320	-156.33060	26.25227	315.74005	-311.07800	1028.45105	520.70477	-142.45711	997.64661	629.50647	-242.35629	757.01520	687.17163	-234.79285	713.99792	691.63745	-181.29726	760.39490	689.04028	-181.24883	716.49188	693.50806	-218.07239	485.95154	665.46051	-206.57210	463.06750	554.94763	-295.88773	404.96429	688.90308	-292.34567	362.02457	698.10480	-233.12791	400.62344	687.25220	-240.08109	360.35461	696.33545	-274.30130	91.40327	699.12866	-255.11115	89.40430	619.43866	-329.47174	40.68289	664.30255	-134.98186	33.48519	637.16229	-104.52648	46.02960	678.75665	-156.28259	30.77373	740.56177
1236	4.94000	-323.05948	1027.17261	440.67474	-181.50948	1001.16901	288.65448	-269.70685	795.85486	252.10883	-264.92480	749.73572	242.43503	-209.02176	796.06244	250.51064	-213.21637	749.24091	246.69276	-244.41850	492.83841	270.80942	-229.69467	467.10925	384.99823	-307.45941	418.01691	256.22177	-308.71701	370.71765	246.89308	-246.06148	411.74158	259.13522	-254.87129	367.65851	250.19540	-284.54669	92.71947	239.24583	-272.80121	90.05445	319.30136	-347.87863	38.55018	278.86465	-177.13446	28.26170	206.34375	-121.89777	47.07253	266.39673	-156.34494	26.27751	315.70856	-311.05197	1028.44714	520.79883	-142.45569	997.66467	629.55994	-242.36252	757.03137	687.20605	-234.77129	714.00055	691.69647	-181.24388	760.43207	689.10596	-181.23035	716.51312	693.54724	-218.04805	485.97574	665.48468	-206.54897	463.05518	554.99036	-295.87756	404.97397	688.93317	-292.35159	362.04944	698.12292	-233.07680	400.64264	687.26874	-240.06044	360.37207	696.37079	-274.30328	91.41332	699.13788	-255.10646	89.39360	619.44958	-329.47867	40.71798	664.27985	-134.92294	33.49878	637.11725	-104.49263	46.04315	678.74792	-156.25031	30.78845	740.55292
